<svg width="606" height="122" viewBox="0 0 606 122" fill="none" xmlns="http://www.w3.org/2000/svg">
<path d="M93.968 98V30.8H126.8C135.248 30.8 141.584 32.4 145.808 35.6C150.096 38.8 152.24 43.024 152.24 48.272C152.24 51.792 151.376 54.864 149.648 57.488C147.92 60.048 145.552 62.032 142.544 63.44C139.536 64.848 136.08 65.552 132.176 65.552L134 61.616C138.224 61.616 141.968 62.32 145.232 63.728C148.496 65.072 151.024 67.088 152.816 69.776C154.672 72.464 155.6 75.76 155.6 79.664C155.6 85.424 153.328 89.936 148.784 93.2C144.24 96.4 137.552 98 128.72 98H93.968ZM109.424 86.288H127.568C131.6 86.288 134.64 85.648 136.688 84.368C138.8 83.024 139.856 80.912 139.856 78.032C139.856 75.216 138.8 73.136 136.688 71.792C134.64 70.384 131.6 69.68 127.568 69.68H108.272V58.352H124.88C128.656 58.352 131.536 57.712 133.52 56.432C135.568 55.088 136.592 53.072 136.592 50.384C136.592 47.76 135.568 45.808 133.52 44.528C131.536 43.184 128.656 42.512 124.88 42.512H109.424V86.288ZM157.678 98V46.352H171.982V60.944L169.966 56.72C171.502 53.072 173.966 50.32 177.358 48.464C180.75 46.544 184.878 45.584 189.742 45.584V59.408C189.102 59.344 188.526 59.312 188.014 59.312C187.502 59.248 186.958 59.216 186.382 59.216C182.286 59.216 178.958 60.4 176.398 62.768C173.902 65.072 172.654 68.688 172.654 73.616V98H157.678ZM215.264 98.768C209.376 98.768 204.192 97.616 199.712 95.312C195.296 93.008 191.872 89.872 189.44 85.904C187.008 81.872 185.792 77.296 185.792 72.176C185.792 66.992 186.976 62.416 189.344 58.448C191.776 54.416 195.072 51.28 199.232 49.04C203.392 46.736 208.096 45.584 213.344 45.584C218.4 45.584 222.944 46.672 226.976 48.848C231.072 50.96 234.304 54.032 236.672 58.064C239.04 62.032 240.224 66.8 240.224 72.368C240.224 72.944 240.192 73.616 240.128 74.384C240.064 75.088 240 75.76 239.936 76.4H197.984V67.664H232.064L226.304 70.256C226.304 67.568 225.76 65.232 224.672 63.248C223.584 61.264 222.08 59.728 220.16 58.64C218.24 57.488 216 56.912 213.44 56.912C210.88 56.912 208.608 57.488 206.624 58.64C204.704 59.728 203.2 61.296 202.112 63.344C201.024 65.328 200.48 67.696 200.48 70.448V72.752C200.48 75.568 201.088 78.064 202.304 80.24C203.584 82.352 205.344 83.984 207.584 85.136C209.888 86.224 212.576 86.768 215.648 86.768C218.4 86.768 220.8 86.352 222.848 85.52C224.96 84.688 226.88 83.44 228.608 81.776L236.576 90.416C234.208 93.104 231.232 95.184 227.648 96.656C224.064 98.064 219.936 98.768 215.264 98.768ZM272.947 45.584C277.043 45.584 280.691 46.416 283.891 48.08C287.155 49.68 289.715 52.176 291.571 55.568C293.427 58.896 294.355 63.184 294.355 68.432V98H279.379V70.736C279.379 66.576 278.451 63.504 276.595 61.52C274.803 59.536 272.243 58.544 268.915 58.544C266.547 58.544 264.403 59.056 262.483 60.08C260.627 61.04 259.155 62.544 258.067 64.592C257.043 66.64 256.531 69.264 256.531 72.464V98H241.555V46.352H255.859V60.656L253.171 56.336C255.027 52.88 257.683 50.224 261.139 48.368C264.595 46.512 268.531 45.584 272.947 45.584ZM320.41 98.768C314.33 98.768 309.594 97.232 306.202 94.16C302.81 91.024 301.114 86.384 301.114 80.24V34.928H316.09V80.048C316.09 82.224 316.666 83.92 317.818 85.136C318.97 86.288 320.538 86.864 322.522 86.864C324.89 86.864 326.906 86.224 328.57 84.944L332.602 95.504C331.066 96.592 329.21 97.424 327.034 98C324.922 98.512 322.714 98.768 320.41 98.768ZM293.146 59.024V47.504H328.954V59.024H293.146ZM379.504 30.8H395.056V98H379.504V30.8ZM348.976 98H333.424V30.8H348.976V98ZM380.656 70.448H347.824V57.296H380.656V70.448ZM432.94 98V87.92L431.98 85.712V67.664C431.98 64.464 430.988 61.968 429.004 60.176C427.084 58.384 424.108 57.488 420.076 57.488C417.324 57.488 414.604 57.936 411.916 58.832C409.292 59.664 407.052 60.816 405.196 62.288L399.82 51.824C402.636 49.84 406.028 48.304 409.996 47.216C413.964 46.128 417.996 45.584 422.092 45.584C429.964 45.584 436.076 47.44 440.428 51.152C444.78 54.864 446.956 60.656 446.956 68.528V98H432.94ZM417.196 98.768C413.164 98.768 409.708 98.096 406.828 96.752C403.948 95.344 401.74 93.456 400.204 91.088C398.668 88.72 397.9 86.064 397.9 83.12C397.9 80.048 398.636 77.36 400.108 75.056C401.644 72.752 404.044 70.96 407.308 69.68C410.572 68.336 414.828 67.664 420.076 67.664H433.804V76.4H421.708C418.188 76.4 415.756 76.976 414.412 78.128C413.132 79.28 412.492 80.72 412.492 82.448C412.492 84.368 413.228 85.904 414.7 87.056C416.236 88.144 418.316 88.688 420.94 88.688C423.436 88.688 425.676 88.112 427.66 86.96C429.644 85.744 431.084 83.984 431.98 81.68L434.284 88.592C433.196 91.92 431.212 94.448 428.332 96.176C425.452 97.904 421.74 98.768 417.196 98.768ZM473.661 98.768C469.373 98.768 465.533 97.936 462.141 96.272C458.813 94.608 456.221 92.08 454.365 88.688C452.509 85.232 451.581 80.848 451.581 75.536V46.352H466.557V73.328C466.557 77.616 467.453 80.784 469.245 82.832C471.101 84.816 473.693 85.808 477.021 85.808C479.325 85.808 481.373 85.328 483.165 84.368C484.957 83.344 486.365 81.808 487.389 79.76C488.413 77.648 488.925 75.024 488.925 71.888V46.352H503.901V98H489.693V83.792L492.285 87.92C490.557 91.504 487.997 94.224 484.605 96.08C481.277 97.872 477.629 98.768 473.661 98.768ZM487.389 39.248C485.533 39.248 483.965 38.64 482.685 37.424C481.405 36.208 480.765 34.608 480.765 32.624C480.765 30.64 481.405 29.04 482.685 27.824C483.965 26.608 485.533 26 487.389 26C489.245 26 490.813 26.608 492.093 27.824C493.437 29.04 494.109 30.64 494.109 32.624C494.109 34.608 493.437 36.208 492.093 37.424C490.813 38.64 489.245 39.248 487.389 39.248ZM467.997 39.248C466.141 39.248 464.541 38.64 463.197 37.424C461.917 36.208 461.277 34.608 461.277 32.624C461.277 30.64 461.917 29.04 463.197 27.824C464.541 26.608 466.141 26 467.997 26C469.853 26 471.421 26.608 472.701 27.824C473.981 29.04 474.621 30.64 474.621 32.624C474.621 34.608 473.981 36.208 472.701 37.424C471.421 38.64 469.853 39.248 467.997 39.248ZM526.512 98.768C522.096 98.768 517.84 98.256 513.744 97.232C509.712 96.144 506.512 94.8 504.144 93.2L509.136 82.448C511.504 83.92 514.288 85.136 517.488 86.096C520.752 86.992 523.952 87.44 527.088 87.44C530.544 87.44 532.976 87.024 534.384 86.192C535.856 85.36 536.592 84.208 536.592 82.736C536.592 81.52 536.016 80.624 534.864 80.048C533.776 79.408 532.304 78.928 530.448 78.608C528.592 78.288 526.544 77.968 524.304 77.648C522.128 77.328 519.92 76.912 517.68 76.4C515.44 75.824 513.392 74.992 511.536 73.904C509.68 72.816 508.176 71.344 507.024 69.488C505.936 67.632 505.392 65.232 505.392 62.288C505.392 59.024 506.32 56.144 508.176 53.648C510.096 51.152 512.848 49.2 516.432 47.792C520.016 46.32 524.304 45.584 529.296 45.584C532.816 45.584 536.4 45.968 540.048 46.736C543.696 47.504 546.736 48.624 549.168 50.096L544.176 60.752C541.68 59.28 539.152 58.288 536.592 57.776C534.096 57.2 531.664 56.912 529.296 56.912C525.968 56.912 523.536 57.36 522 58.256C520.464 59.152 519.696 60.304 519.696 61.712C519.696 62.992 520.24 63.952 521.328 64.592C522.48 65.232 523.984 65.744 525.84 66.128C527.696 66.512 529.712 66.864 531.888 67.184C534.128 67.44 536.368 67.856 538.608 68.432C540.848 69.008 542.864 69.84 544.656 70.928C546.512 71.952 548.016 73.392 549.168 75.248C550.32 77.04 550.896 79.408 550.896 82.352C550.896 85.552 549.936 88.4 548.016 90.896C546.096 93.328 543.312 95.248 539.664 96.656C536.08 98.064 531.696 98.768 526.512 98.768ZM577.128 98.768C571.24 98.768 566.056 97.616 561.576 95.312C557.16 93.008 553.736 89.872 551.304 85.904C548.872 81.872 547.656 77.296 547.656 72.176C547.656 66.992 548.84 62.416 551.208 58.448C553.64 54.416 556.936 51.28 561.096 49.04C565.256 46.736 569.96 45.584 575.208 45.584C580.264 45.584 584.808 46.672 588.84 48.848C592.936 50.96 596.168 54.032 598.536 58.064C600.904 62.032 602.088 66.8 602.088 72.368C602.088 72.944 602.056 73.616 601.992 74.384C601.928 75.088 601.864 75.76 601.8 76.4H559.848V67.664H593.928L588.168 70.256C588.168 67.568 587.624 65.232 586.536 63.248C585.448 61.264 583.944 59.728 582.024 58.64C580.104 57.488 577.864 56.912 575.304 56.912C572.744 56.912 570.472 57.488 568.488 58.64C566.568 59.728 565.064 61.296 563.976 63.344C562.888 65.328 562.344 67.696 562.344 70.448V72.752C562.344 75.568 562.952 78.064 564.168 80.24C565.448 82.352 567.208 83.984 569.448 85.136C571.752 86.224 574.44 86.768 577.512 86.768C580.264 86.768 582.664 86.352 584.712 85.52C586.824 84.688 588.744 83.44 590.472 81.776L598.44 90.416C596.072 93.104 593.096 95.184 589.512 96.656C585.928 98.064 581.8 98.768 577.128 98.768Z" fill="black"/>
<path d="M72.5246 89.0487C70.6444 84.9797 68.3894 80.803 65.7308 76.9992C62.3193 72.1182 58.0859 67.6219 52.909 64.8684C47.7319 62.1149 41.6367 61.1179 35.6823 61.0177C31.0417 60.9396 26.3178 61.4041 21.8927 62.1198L72.5816 27.8778L72.5246 89.0487Z" stroke="black" stroke-width="8"/>
</svg>
